<svg width="20" height="20" viewBox="0 0 20 20" fill="none" xmlns="http://www.w3.org/2000/svg">
<g id="Frame">
<path id="Vector" d="M5.5 10C5.5 10.3978 5.34196 10.7794 5.06066 11.0607C4.77936 11.342 4.39782 11.5 4 11.5C3.60218 11.5 3.22064 11.342 2.93934 11.0607C2.65804 10.7794 2.5 10.3978 2.5 10C2.5 9.60218 2.65804 9.22064 2.93934 8.93934C3.22064 8.65804 3.60218 8.5 4 8.5C4.39782 8.5 4.77936 8.65804 5.06066 8.93934C5.34196 9.22064 5.5 9.60218 5.5 10ZM10 8.5C9.60218 8.5 9.22064 8.65804 8.93934 8.93934C8.65804 9.22064 8.5 9.60218 8.5 10C8.5 10.3978 8.65804 10.7794 8.93934 11.0607C9.22064 11.342 9.60218 11.5 10 11.5C10.3978 11.5 10.7794 11.342 11.0607 11.0607C11.342 10.7794 11.5 10.3978 11.5 10C11.5 9.60218 11.342 9.22064 11.0607 8.93934C10.7794 8.65804 10.3978 8.5 10 8.5ZM16 8.5C15.6022 8.5 15.2206 8.65804 14.9393 8.93934C14.658 9.22064 14.5 9.60218 14.5 10C14.5 10.3978 14.658 10.7794 14.9393 11.0607C15.2206 11.342 15.6022 11.5 16 11.5C16.3978 11.5 16.7794 11.342 17.0607 11.0607C17.342 10.7794 17.5 10.3978 17.5 10C17.5 9.60218 17.342 9.22064 17.0607 8.93934C16.7794 8.65804 16.3978 8.5 16 8.5Z" fill="black"/>
</g>
</svg>
