<svg width="16" height="16" viewBox="0 0 16 16" fill="none" xmlns="http://www.w3.org/2000/svg">
<g id="Frame" clip-path="url(#clip0_2_20)">
<path id="Vector" d="M15.6002 14.8928L11.9882 11.28C13.1421 9.94301 13.7326 8.21064 13.6355 6.44722C13.5384 4.6838 12.7612 3.02675 11.4674 1.82457C10.1736 0.622396 8.46408 -0.0312296 6.69829 0.00116021C4.93249 0.03355 3.24806 0.749432 1.99924 1.99825C0.750427 3.24706 0.0345457 4.9315 0.00215585 6.69729C-0.030234 8.46309 0.623392 10.1726 1.82557 11.4664C3.02775 12.7602 4.68479 13.5374 6.44821 13.6345C8.21163 13.7316 9.944 13.1411 11.281 11.9872L14.893 15.5992L15.6002 14.8928ZM1.041 6.8424C1.041 5.69476 1.38132 4.57289 2.01893 3.61868C2.65654 2.66446 3.5628 1.92075 4.6231 1.48161C5.6834 1.04246 6.85011 0.9276 7.97568 1.15155C9.10126 1.3755 10.1351 1.92821 10.9466 2.73977C11.758 3.55133 12.3106 4.58529 12.5344 5.7109C12.7582 6.83651 12.6432 8.0032 12.2039 9.06344C11.7646 10.1237 11.0208 11.0298 10.0665 11.6673C9.11215 12.3048 7.99024 12.645 6.8426 12.6448C5.30436 12.6429 3.82969 12.0309 2.74207 10.9432C1.65445 9.85539 1.04269 8.38064 1.041 6.8424Z" fill="black"/>
</g>
<defs>
<clipPath id="clip0_2_20">
<rect width="16" height="16" fill="white"/>
</clipPath>
</defs>
</svg>
